<svg xmlns="http://www.w3.org/2000/svg" viewBox="0 0 1040 600" font-family="'Brockmann','Helvetica Neue',Arial,sans-serif">
  <defs>
    <style>
      @import url('https://fonts.googleapis.com/css2?family=DM+Mono:wght@400;500&amp;display=swap');
      .mono { font-family: 'DM Mono', ui-monospace, monospace; }
      .t  { fill:#fff; font-weight:700; }
      .l  { fill:#D4D2E3; }
      .m  { fill:#9795B5; }
      .red{ fill:#E61E25; }
      .cy { fill:#35E0D8; }
      .am { fill:#E0A85A; }
    </style>
  </defs>

  <rect width="1040" height="600" fill="#1D1D40"/>

  <!-- header -->
  <text x="50" y="36" class="mono cy" font-size="14" letter-spacing="3">~ THE OPEN&#8211;CLOSED GAP</text>
  <text x="50" y="66" class="t" font-size="30">Open weights trail the frontier by months, not years</text>
  <text x="50" y="88" class="m" font-size="16">Epoch Capabilities Index (ECI): running maximum. The gap is ~8 points &#8776; 4 months.</text>

  <!-- legend -->
  <g font-size="14">
    <line x1="580" y1="36" x2="612" y2="36" stroke="#E61E25" stroke-width="3"/><text x="620" y="40" class="l">closed frontier</text>
    <line x1="760" y1="36" x2="792" y2="36" stroke="#35E0D8" stroke-width="3"/><text x="800" y="40" class="l">best open-weight</text>
  </g>

  <!-- axes -->
  <line x1="110" y1="100" x2="110" y2="530" stroke="#9795B5" stroke-width="1.2"/>
  <line x1="110" y1="530" x2="990" y2="530" stroke="#9795B5" stroke-width="1.2"/>
  <text x="100" y="92" class="mono m" font-size="15" text-anchor="end">ECI &#8593;</text>
  <line x1="110.0" y1="100" x2="110.0" y2="530" stroke="rgba(151,149,181,0.15)" stroke-width="1"/>
  <text x="110.0" y="554" class="mono m" font-size="15" text-anchor="middle">2023</text>
  <line x1="361.5" y1="100" x2="361.5" y2="530" stroke="rgba(151,149,181,0.15)" stroke-width="1"/>
  <text x="361.5" y="554" class="mono m" font-size="15" text-anchor="middle">2024</text>
  <line x1="613.7" y1="100" x2="613.7" y2="530" stroke="rgba(151,149,181,0.15)" stroke-width="1"/>
  <text x="613.7" y="554" class="mono m" font-size="15" text-anchor="middle">2025</text>
  <line x1="865.3" y1="100" x2="865.3" y2="530" stroke="rgba(151,149,181,0.15)" stroke-width="1"/>
  <text x="865.3" y="554" class="mono m" font-size="15" text-anchor="middle">2026</text>
  <line x1="110" y1="472.7" x2="990" y2="472.7" stroke="rgba(151,149,181,0.10)" stroke-width="1"/>
  <text x="100" y="477.7" class="mono m" font-size="14" text-anchor="end">100</text>
  <line x1="110" y1="415.3" x2="990" y2="415.3" stroke="rgba(151,149,181,0.10)" stroke-width="1"/>
  <text x="100" y="420.3" class="mono m" font-size="14" text-anchor="end">110</text>
  <line x1="110" y1="358.0" x2="990" y2="358.0" stroke="rgba(151,149,181,0.10)" stroke-width="1"/>
  <text x="100" y="363.0" class="mono m" font-size="14" text-anchor="end">120</text>
  <line x1="110" y1="300.7" x2="990" y2="300.7" stroke="rgba(151,149,181,0.10)" stroke-width="1"/>
  <text x="100" y="305.7" class="mono m" font-size="14" text-anchor="end">130</text>
  <line x1="110" y1="243.3" x2="990" y2="243.3" stroke="rgba(151,149,181,0.10)" stroke-width="1"/>
  <text x="100" y="248.3" class="mono m" font-size="14" text-anchor="end">140</text>
  <line x1="110" y1="186.0" x2="990" y2="186.0" stroke="rgba(151,149,181,0.10)" stroke-width="1"/>
  <text x="100" y="191.0" class="mono m" font-size="14" text-anchor="end">150</text>
  <line x1="110" y1="128.7" x2="990" y2="128.7" stroke="rgba(151,149,181,0.10)" stroke-width="1"/>
  <text x="100" y="133.7" class="mono m" font-size="14" text-anchor="end">160</text>
  <polygon fill="#9795B5" fill-opacity="0.15" points="159.6,323.8 164.4,323.8 169.3,323.8 174.1,323.8 178.9,323.8 183.7,323.8 188.6,323.8 193.4,323.8 198.2,323.8 203.0,323.8 207.9,323.8 212.7,323.8 217.5,323.8 222.3,323.8 227.1,323.8 232.0,323.8 236.8,323.8 241.6,323.8 246.4,323.8 251.3,323.8 256.1,323.8 260.9,323.8 265.7,323.8 270.6,323.8 275.4,323.8 280.2,323.8 285.0,323.8 289.9,323.8 294.7,323.8 299.5,323.8 304.3,323.8 309.2,323.8 314.0,323.8 318.8,323.8 323.6,323.8 328.4,323.8 333.3,323.8 338.1,323.8 342.9,323.8 347.7,323.8 352.6,323.8 357.4,323.8 362.2,323.8 367.0,323.8 371.9,323.8 376.7,323.8 381.5,323.8 386.3,323.8 391.2,323.8 396.0,313.4 400.8,313.4 405.6,313.4 410.5,313.4 415.3,313.4 420.1,313.4 424.9,313.4 429.7,313.4 434.6,313.4 439.4,313.4 444.2,313.4 449.0,313.4 453.9,306.9 458.7,306.9 463.5,306.9 468.3,306.9 473.2,306.9 478.0,306.9 482.8,300.7 487.6,300.7 492.5,300.7 497.3,300.7 502.1,300.7 506.9,300.7 511.8,300.7 516.6,300.7 521.4,300.7 526.2,300.7 531.0,300.7 535.9,300.7 540.7,262.4 545.5,262.4 550.3,262.4 555.2,262.4 560.0,262.4 564.8,262.4 569.6,262.4 574.5,262.4 579.3,262.4 584.1,262.4 588.9,262.4 593.8,262.4 598.6,262.4 603.4,227.1 608.2,227.1 613.1,227.1 617.9,227.1 622.7,227.1 627.5,227.1 632.3,227.1 637.2,227.1 642.0,227.1 646.8,227.1 651.6,227.1 656.5,227.1 661.3,227.1 666.1,227.1 670.9,214.3 675.8,214.3 680.6,214.3 685.4,214.3 690.2,201.7 695.1,201.7 699.9,201.7 704.7,201.7 709.5,201.7 714.4,201.7 719.2,201.7 724.0,196.7 728.8,196.7 733.6,196.7 738.5,196.7 743.3,196.7 748.1,196.7 752.9,196.7 757.8,196.7 762.6,196.7 767.4,186.0 772.2,186.0 777.1,186.0 781.9,186.0 786.7,186.0 791.5,186.0 796.4,186.0 801.2,186.0 806.0,184.8 810.8,184.8 815.7,184.8 820.5,184.8 825.3,184.8 830.1,184.8 834.9,166.2 839.8,166.2 844.6,166.2 849.4,166.2 854.2,162.0 859.1,162.0 863.9,162.0 868.7,162.0 873.5,162.0 878.4,162.0 883.2,162.0 888.0,162.0 892.8,152.2 897.7,152.2 902.5,148.0 907.3,148.0 912.1,141.7 917.0,141.7 921.8,141.7 926.6,141.7 931.4,141.7 936.2,141.7 941.1,141.7 945.9,132.4 950.7,132.4 955.5,132.4 960.4,132.4 965.2,132.4 970.0,132.4 974.8,132.4 979.7,132.4 984.5,132.4 989.3,132.4 990.0,132.4 990.0,176.8 989.3,176.8 984.5,176.8 979.7,176.8 974.8,176.8 970.0,176.8 965.2,176.8 960.4,176.8 955.5,176.8 950.7,176.8 945.9,176.8 941.1,176.8 936.2,196.2 931.4,196.2 926.6,196.2 921.8,196.2 917.0,196.2 912.1,196.2 907.3,196.2 902.5,196.2 897.7,196.2 892.8,196.2 888.0,196.2 883.2,196.2 878.4,206.3 873.5,206.3 868.7,206.3 863.9,206.3 859.1,206.3 854.2,206.3 849.4,206.3 844.6,206.3 839.8,210.0 834.9,210.0 830.1,210.0 825.3,210.0 820.5,210.0 815.7,210.0 810.8,210.0 806.0,210.0 801.2,210.0 796.4,210.0 791.5,210.0 786.7,210.0 781.9,210.0 777.1,210.0 772.2,210.0 767.4,210.0 762.6,210.0 757.8,210.0 752.9,230.8 748.1,230.8 743.3,230.8 738.5,230.8 733.6,230.8 728.8,230.8 724.0,230.8 719.2,230.8 714.4,244.2 709.5,244.2 704.7,244.2 699.9,244.2 695.1,244.2 690.2,244.2 685.4,244.2 680.6,244.2 675.8,244.2 670.9,244.2 666.1,244.2 661.3,244.2 656.5,244.2 651.6,244.2 646.8,244.2 642.0,244.2 637.2,244.2 632.3,244.2 627.5,244.2 622.7,282.7 617.9,282.7 613.1,282.7 608.2,294.1 603.4,294.1 598.6,304.1 593.8,304.1 588.9,304.1 584.1,304.1 579.3,304.1 574.5,304.1 569.6,304.1 564.8,304.1 560.0,304.1 555.2,304.1 550.3,304.1 545.5,304.1 540.7,306.1 535.9,306.1 531.0,306.1 526.2,306.1 521.4,306.1 516.6,306.1 511.8,306.1 506.9,306.1 502.1,306.1 497.3,325.2 492.5,325.2 487.6,325.2 482.8,325.2 478.0,325.2 473.2,325.2 468.3,332.7 463.5,332.7 458.7,332.7 453.9,332.7 449.0,332.7 444.2,342.8 439.4,342.8 434.6,371.1 429.7,371.1 424.9,371.1 420.1,371.1 415.3,371.1 410.5,371.1 405.6,371.1 400.8,371.1 396.0,371.1 391.2,371.1 386.3,371.1 381.5,371.1 376.7,371.1 371.9,371.1 367.0,371.1 362.2,371.1 357.4,371.1 352.6,371.1 347.7,371.1 342.9,372.9 338.1,372.9 333.3,372.9 328.4,372.9 323.6,372.9 318.8,378.9 314.0,378.9 309.2,378.9 304.3,378.9 299.5,378.9 294.7,378.9 289.9,378.9 285.0,378.9 280.2,378.9 275.4,378.9 270.6,378.9 265.7,378.9 260.9,378.9 256.1,378.9 251.3,378.9 246.4,397.3 241.6,419.2 236.8,419.2 232.0,419.2 227.1,419.2 222.3,419.2 217.5,419.2 212.7,419.2 207.9,419.2 203.0,419.2 198.2,419.2 193.4,419.2 188.6,419.2 183.7,419.2 178.9,419.2 174.1,419.2 169.3,419.2 164.4,419.2 159.6,419.2"/>
  <polyline fill="none" stroke="#E61E25" stroke-width="2.5" points="159.6,323.8 392.5,323.8 392.5,313.4 453.2,313.4 453.2,306.9 479.4,306.9 479.4,300.7 537.3,300.7 537.3,266.4 537.3,266.4 537.3,262.4 603.4,262.4 603.4,227.1 670.9,227.1 670.9,214.3 686.1,214.3 686.1,201.7 724.0,201.7 724.0,196.7 764.0,196.7 764.0,186.0 806.0,186.0 806.0,184.8 834.9,184.8 834.9,166.2 850.8,166.2 850.8,164.6 850.8,164.6 850.8,162.0 889.4,162.0 889.4,152.2 899.0,152.2 899.0,148.0 908.7,148.0 908.7,141.7 942.5,141.7 942.5,138.9 942.5,138.9 942.5,132.4 990.0,132.4"/>
  <polyline fill="none" stroke="#35E0D8" stroke-width="2.5" points="147.2,497.7 147.2,497.7 147.2,474.9 147.2,474.9 147.2,435.0 147.2,435.0 147.2,419.2 246.4,419.2 246.4,397.3 247.8,397.3 247.8,378.9 320.2,378.9 320.2,372.9 347.1,372.9 347.1,371.1 435.3,371.1 435.3,351.1 436.0,351.1 436.0,342.8 449.0,342.8 449.0,332.7 470.4,332.7 470.4,325.2 502.1,325.2 502.1,306.1 542.1,306.1 542.1,304.1 600.0,304.1 600.0,294.1 609.6,294.1 609.6,282.7 626.8,282.7 626.8,244.2 715.0,244.2 715.0,230.8 755.0,230.8 755.0,210.0 843.9,210.0 843.9,206.3 883.2,206.3 883.2,196.2 940.4,196.2 940.4,176.8 990.0,176.8"/>
  <circle cx="159.6" cy="323.8" r="3.5" fill="#E61E25"/>
  <text x="154.6" y="311.8" class="mono red" font-size="13" text-anchor="start">GPT-4</text>
  <circle cx="392.5" cy="313.4" r="3.5" fill="#E61E25"/>
  <circle cx="453.2" cy="306.9" r="3.5" fill="#E61E25"/>
  <circle cx="479.4" cy="300.7" r="3.5" fill="#E61E25"/>
  <circle cx="537.3" cy="266.4" r="3.5" fill="#E61E25"/>
  <text x="532.3" y="254.4" class="mono red" font-size="13" text-anchor="start">o1-preview</text>
  <circle cx="537.3" cy="262.4" r="3.5" fill="#E61E25"/>
  <circle cx="603.4" cy="227.1" r="3.5" fill="#E61E25"/>
  <circle cx="670.9" cy="214.3" r="3.5" fill="#E61E25"/>
  <circle cx="686.1" cy="201.7" r="3.5" fill="#E61E25"/>
  <circle cx="724.0" cy="196.7" r="3.5" fill="#E61E25"/>
  <circle cx="764.0" cy="186.0" r="3.5" fill="#E61E25"/>
  <text x="759.0" y="174.0" class="mono red" font-size="13" text-anchor="start">GPT-5</text>
  <circle cx="806.0" cy="184.8" r="3.5" fill="#E61E25"/>
  <circle cx="834.9" cy="166.2" r="3.5" fill="#E61E25"/>
  <circle cx="850.8" cy="164.6" r="3.5" fill="#E61E25"/>
  <circle cx="850.8" cy="162.0" r="3.5" fill="#E61E25"/>
  <circle cx="889.4" cy="152.2" r="3.5" fill="#E61E25"/>
  <circle cx="899.0" cy="148.0" r="3.5" fill="#E61E25"/>
  <circle cx="908.7" cy="141.7" r="3.5" fill="#E61E25"/>
  <circle cx="942.5" cy="138.9" r="3.5" fill="#E61E25"/>
  <circle cx="942.5" cy="132.4" r="3.5" fill="#E61E25"/>
  <text x="882.5" y="120.4" class="mono red" font-size="13" text-anchor="start">GPT-5.5 Pro</text>
  <circle cx="147.2" cy="497.7" r="3.5" fill="#35E0D8"/>
  <circle cx="147.2" cy="474.9" r="3.5" fill="#35E0D8"/>
  <circle cx="147.2" cy="435.0" r="3.5" fill="#35E0D8"/>
  <circle cx="147.2" cy="419.2" r="3.5" fill="#35E0D8"/>
  <text x="153.2" y="435.2" class="mono cy" font-size="12">LLaMA-65B</text>
  <circle cx="246.4" cy="397.3" r="3.5" fill="#35E0D8"/>
  <circle cx="247.8" cy="378.9" r="3.5" fill="#35E0D8"/>
  <circle cx="320.2" cy="372.9" r="3.5" fill="#35E0D8"/>
  <circle cx="347.1" cy="371.1" r="3.5" fill="#35E0D8"/>
  <circle cx="435.3" cy="351.1" r="3.5" fill="#35E0D8"/>
  <circle cx="436.0" cy="342.8" r="3.5" fill="#35E0D8"/>
  <circle cx="449.0" cy="332.7" r="3.5" fill="#35E0D8"/>
  <circle cx="470.4" cy="325.2" r="3.5" fill="#35E0D8"/>
  <circle cx="502.1" cy="306.1" r="3.5" fill="#35E0D8"/>
  <text x="508.1" y="322.1" class="mono cy" font-size="12">Llama 3.1-405B</text>
  <circle cx="542.1" cy="304.1" r="3.5" fill="#35E0D8"/>
  <circle cx="600.0" cy="294.1" r="3.5" fill="#35E0D8"/>
  <circle cx="609.6" cy="282.7" r="3.5" fill="#35E0D8"/>
  <circle cx="626.8" cy="244.2" r="3.5" fill="#35E0D8"/>
  <text x="632.8" y="260.2" class="mono cy" font-size="12">DeepSeek-R1</text>
  <circle cx="715.0" cy="230.8" r="3.5" fill="#35E0D8"/>
  <circle cx="755.0" cy="210.0" r="3.5" fill="#35E0D8"/>
  <circle cx="843.9" cy="206.3" r="3.5" fill="#35E0D8"/>
  <circle cx="883.2" cy="196.2" r="3.5" fill="#35E0D8"/>
  <circle cx="940.4" cy="176.8" r="3.5" fill="#35E0D8"/>
  <text x="946.4" y="192.8" class="mono cy" font-size="12">Kimi K2.6</text>
  <line x1="915.6" y1="141.7" x2="915.6" y2="196.2" stroke="#E0A85A" stroke-width="2" stroke-dasharray="5 3"/>
  <text x="925.6" y="173.9" class="mono am" font-size="13">~10 pts &#8776; 4 mo</text>
  <text x="50" y="586" class="mono m" font-size="12">Source: Epoch AI Capabilities Index (epoch.ai/data). CC BY. Downloaded June 2026.</text>
</svg>
